<svg id="Layer_1" data-name="Layer 1" xmlns="http://www.w3.org/2000/svg" viewBox="0 0 1024 1024"><path d="M512,1008A496.13,496.13,0,0,1,318.94,55,496.13,496.13,0,0,1,705.06,969,492.86,492.86,0,0,1,512,1008Z" style="fill:#fff"/><path d="M512,32A480.13,480.13,0,0,1,698.83,954.29,480.13,480.13,0,0,1,325.17,69.71,477,477,0,0,1,512,32m0-32C229.23,0,0,229.23,0,512s229.23,512,512,512,512-229.23,512-512S794.77,0,512,0Z" style="fill:#231f20"/><path d="M33.53,521.66q-3.68,6.58-7.26,13.37a898.88,898.88,0,0,0,17,101.85c5.23-31.13,15.86-62.64,31.7-93.57q5.36-10.56,11-20.94Q59.76,522.08,33.53,521.66Z" style="fill:#231f20"/><path d="M523.46,525.38q-29-.09-58-.22c-27.55,14.82-48.83,45.29-48,71.65.61,19.73,13.95,33.45,34.83,35.8a65.85,65.85,0,0,0,25.47-2.47c33.72-9.7,59.76-41.92,59.26-73.37C536.81,543.5,531.84,532.54,523.46,525.38Z" style="fill:#231f20"/><path d="M546.26,525.45a65.06,65.06,0,0,1,7.83,30.67c.3,19.74-7.06,40.06-20.74,57.22a103.15,103.15,0,0,1-51.53,34.84,81.26,81.26,0,0,1-31.59,3c-29.38-3.31-48.94-24.27-49.84-53.42-.79-25.44,13.32-53,34.68-72.74q-27.33-.12-54.67-.29c-20.4,29-32.06,62.13-33.37,95.67,1.64,28.27,16,51,40.43,64,60.85,28.82,141.83,3.12,188.45-59.83,21.76-29.36,30.91-65.63,26.18-98.94Z" style="fill:#231f20"/><path d="M619.36,525.64c4.44,37.56-6.07,77.84-30.26,110.49s-58,57.51-95.23,70c-39.12,13.17-79.47,11.49-113.59-4.74l-.31-.16c-30.37-16.06-48.13-44.45-50-79.93v-.91c1.21-33.38,11.54-66.3,29.7-95.83l-48-.31c-29,46.68-40.36,87.71-35.5,127.87a112,112,0,0,0,64.19,88.13l.21.11c39.61,19.49,91,21.85,144.56,6.66C521.36,737,555.23,720,583,698.13A226.8,226.8,0,0,0,651.54,610a203,203,0,0,0,17-84.32Z" style="fill:#231f20"/><path d="M685.57,525.75a223.52,223.52,0,0,1-18.64,92.1,245.57,245.57,0,0,1-74.08,95.36c-29.56,23.29-65.46,41.25-103.79,51.94-57.27,16.23-112.56,13.51-155.66-7.64C293,739,264.59,699.73,259.2,654.93c-3.3-27.33.29-55.9,10.68-84.9a281,281,0,0,1,21.59-45.88l-47.93-.37c-2.85,5-5.66,10-8.37,15-24.87,46.29-35.45,90-31.48,129.91,5.14,56.18,37,101.2,89.81,126.89,129.59,58.11,277.41-4.83,366.47-93a257.94,257.94,0,0,0,71.55-176.8Z" style="fill:#231f20"/><path d="M748.58,525.8a277.8,277.8,0,0,1-77.06,190.31l-.14.13c-51.5,51-115.9,89.28-181.32,107.71-71.81,20.22-142.15,16.39-203.39-11.12l-.22-.09c-58.56-28.47-94-78.81-99.74-141.77-4.38-43.93,7-91.53,33.78-141.41,1.07-2,2.19-4,3.28-6q-25.46-.23-50.92-.49c-14.72,26.16-28.93,57.91-36.76,92.62-11.37,50.36-7,96.23,13.1,136.35l.16.35c40.15,89.26,133.5,123.47,207.47,125.73,43.07,1.44,89.07-5.18,136.77-19.67,65.06-20,121.68-48,168.28-83.14,52.28-39.64,90.56-89.3,113.77-147.56a278.22,278.22,0,0,0,20.2-102Z" style="fill:#231f20"/><path d="M860.4,525.81H812.94a298.21,298.21,0,0,1-21.7,109.24c-24.49,61.51-64.81,113.87-119.83,155.58-48.2,36.37-106.56,65.25-173.49,85.83-49.4,15-97.13,21.86-141.89,20.36-46-1.41-90.41-13.46-128.32-34.85-42.24-23.84-74.61-58.72-93.63-100.88-22.06-44.27-27-94.57-14.56-149.52,7.4-32.81,20.08-63,33.71-88.65l-8.42-.08c-13.06-.06-26.12-.18-39.18-.29q-8.14,14.66-15.76,29.61C66.53,597.74,55.26,644.41,56.69,688.7c14.08,48.33,51.66,85.14,73.25,129.38,63.47,60.27,105.33,118,178.7,122.18,152.91,8,315.79-55.78,446.9-175.1a396.5,396.5,0,0,0,59.52-76.33,373.33,373.33,0,0,0,39.12-92.31A291.05,291.05,0,0,0,864,525.8Z" style="fill:#231f20"/><path d="M881,525.8a313.3,313.3,0,0,1-10.41,75.7,394,394,0,0,1-41.22,97.31A416.2,416.2,0,0,1,766.81,779l-.33.31c-64.07,58.35-138.14,105.48-214.19,136.29-81.51,33-163.87,47.6-244.8,43.34-40.78-2.3-5.67,1.11,39.54,20.44l39,10.14c42.59-4.93,66.91-2.65,115-19.14C646.77,918.87,755,851,831.91,762.71c33.87-41.23,59.63-82.32,76.54-122.1l0-.12a307.28,307.28,0,0,0,26.25-114.72Z" style="fill:#231f20"/><path d="M951.82,525.76a327.44,327.44,0,0,1-27.93,122.52c-17.66,41.53-44.4,84.21-79.46,126.88l-.17.2C765.32,866,654.64,935.6,505.92,988.11c-49.21,16.87,28.17.09-15.53,5.15-43.65,6.47,45.48,26.4,147.08-23.69C749.23,914.34,826.32,857.42,887.41,785l.14-.15a599,599,0,0,0,68.27-95c21.69-37.55,37.7-75.06,47.59-111.49a332.88,332.88,0,0,0,10-52.6Z" style="fill:#231f20"/><rect y="496" width="1024" height="32" style="fill:#231f20"/><path d="M280.65,467.29c-2.28,0-4.55-.05-6.93-.16-1.58-.07-6.57-.07-8.22-.07H253.77c-4.94,0-7.63,0-9-.08h-.14c-.37,0-2.51-.05-12-.05-11.3,0-29.09.05-48.53.09-23.14.06-49.35.12-69.21.12-31.79,0-33-.16-34-.28-8.19-.95-13.78-9-13.19-19.23.55-9.61,6.34-16.33,14.08-16.33h.28c4.26,0,72.81-3.89,118.19-6.46,33.49-1.9,51.37-2.91,53.52-3l12.35-.52,135-5.91c5.87-.26,10.94-3.84,14-9.83a23.82,23.82,0,0,0-1.27-23.66L258.19,149.2a8.88,8.88,0,0,1,14.23-10.58L531,452.4a8.88,8.88,0,0,1-6.85,14.53h-219c-2-.09-3.92-.13-5.85-.13-3.21,0-6,.11-8.88.24S284.31,467.29,280.65,467.29Z" style="fill:#231f20"/><path d="M791.68,495.91A218.69,218.69,0,0,1,750,493.24a262.19,262.19,0,0,1-36.16-8.49,289.67,289.67,0,0,1-35.05-13.39c-1.51-.62-3-1.41-4.48-2.13l-4.54-2.2-4.55-2.42-2.32-1.21c-.78-.41-1.53-.88-2.3-1.31l-4.68-2.66c-1.56-.92-3.1-1.93-4.69-2.89l-2.39-1.46c-.8-.49-1.57-1.05-2.37-1.57l-4.82-3.21-3.48-2.55-2-1.43c-.69-.49-1.4-1-2.1-1.6L629.44,441c-1.69-1.35-3.38-3-5.29-4.61a167.61,167.61,0,0,1-27-31.06c-.46-.65-.91-1.31-1.38-2s-.85-1.39-1.29-2.09l-2.67-4.31c-.92-1.45-1.7-3-2.58-4.57l-1.3-2.36-.67-1.19-.6-1.24c-1.6-3.31-3.36-6.67-4.81-10.3l-1.16-2.7-.59-1.36-.51-1.4-2.11-5.69c-.38-.95-.67-1.94-1-2.93l-.93-3c-.32-1-.63-2-.95-3s-.53-2-.8-3c-.5-2-1.11-4-1.47-6-.21-1-.42-2.06-.64-3.09l-.32-1.55-.24-1.58a130,130,0,0,1-1.73-26,131.79,131.79,0,0,1,89.17-120.28L664,193.9c1.79-.54,3.48-.92,5.18-1.39s3.4-.71,5.06-1.08,3.32-.52,4.94-.79a99.87,99.87,0,0,1,18.21-.77,95.13,95.13,0,0,1,15,1.85c2.2.37,4.19,1,6.05,1.39s3.51,1,5,1.47c3,1,5.28,1.83,6.8,2.5l2.35.95.49.22,1.43.67,2.35,1.09c.91.46,2,1,3.13,1.63s2.45,1.36,3.85,2.18,2.88,1.77,4.46,2.81l1.22.79,1.21.87,2.54,1.84c.86.64,1.7,1.36,2.6,2.06l1.35,1.07,1.33,1.17a96.14,96.14,0,0,1,11,11.15,99.81,99.81,0,0,1,18.5,33l.78,2.52c.27.84.57,1.7.74,2.5l.64,2.46c.23.82.35,1.66.53,2.49a72.3,72.3,0,0,1,1.39,10.27,78.62,78.62,0,0,1,0,10.63,75.27,75.27,0,0,1-4.83,21.36,81.17,81.17,0,0,1-4.8,10.17,76.11,76.11,0,0,1-13.94,17.84A71.1,71.1,0,0,1,759.7,346c-1.53,1.12-3.17,2.07-4.76,3.08s-3.27,1.88-5,2.66-3.42,1.56-5.14,2.32l-2.64,1c-.44.16-.88.34-1.32.48l-1.35.42c-.88.26-1.81.6-2.65.81l-2.51.65-2.52.52-2.52.4a56.51,56.51,0,0,1-19.84-.86,57.09,57.09,0,0,1-17.5-7.24,54.73,54.73,0,0,1-7.22-5.4,51.32,51.32,0,0,1-6-6.16,54.48,54.48,0,0,1-7.4-11.47,57.53,57.53,0,0,1-2.45-5.87c-.34-1-.62-2-.94-2.92s-.49-1.76-.67-2.63a39.93,39.93,0,0,1,.27-18.55,41.1,41.1,0,0,1,5.93-13.09,44.53,44.53,0,0,1,3.52-4.43,41.25,41.25,0,0,1,3.34-3.24,45.57,45.57,0,0,1,13.8-8.22c1.28-.54,2.26-.7,3.33-1.09a8.15,8.15,0,0,1,1.6-.4c.53-.11,1.06-.23,1.59-.37l3.19-.42c.54,0,1.07,0,1.6,0a9.51,9.51,0,0,1,1.6,0,36.45,36.45,0,0,1,23.54,9.5l.65.55.32.28.28.31L733,277.8a12.76,12.76,0,0,1,1.17,1.27l1.06,1.37c.35.46.76.91,1.09,1.4l.94,1.5,1,1.53.78,1.47a31,31,0,0,1,2.57,6.45,32.2,32.2,0,0,1,.94,7.42,33.48,33.48,0,0,1-.92,8.11l-.6,2.07c-.11.35-.2.71-.32,1.06l-.41,1-.85,2.11-1.07,2.05-.55,1.05-.65,1-1.34,2-1.56,1.92-.81,1-.9.9-1.86,1.86-2.08,1.69-1.07.86-1.15.75L724,331.23l2.85-.25,1.45-.14,1.41-.27,2.86-.59,2.78-.86,1.41-.46,1.34-.57,2.72-1.2,2.58-1.45,1.3-.75,1.21-.86,2.44-1.75,2.27-2,1.13-1c.36-.35.69-.72,1-1.09l2.06-2.25a47.57,47.57,0,0,0,6.58-10.4,49.55,49.55,0,0,0,3.83-12,51.74,51.74,0,0,0,.53-12.94l-.33-3.29-.58-3.09-.64-3.12c-.24-1-.59-2-.9-3.07l-1-3.08c-.32-1-.81-2-1.22-3l-1.34-3-.34-.76-.4-.72-.81-1.44a64.22,64.22,0,0,0-18.11-20.48,67.31,67.31,0,0,0-27.23-11.84,36.12,36.12,0,0,0-3.91-.59c-1.31-.16-2.64-.31-4-.45s-2.69-.08-4-.11-2.74-.06-4.11,0-2.75.23-4.14.37a36.48,36.48,0,0,0-4.16.57,82.76,82.76,0,0,0-8.17,1.87,81.86,81.86,0,0,0-30.13,16.21,88.79,88.79,0,0,0-7.26,6.92,90.8,90.8,0,0,0-7.62,9.46,86.36,86.36,0,0,0-13.53,68.13c.39,1.83.91,3.7,1.41,5.53s1.07,3.53,1.69,5.31a104.31,104.31,0,0,0,4.46,10.73A100.58,100.58,0,0,0,643,368.53a98.64,98.64,0,0,0,11,11.32,101.65,101.65,0,0,0,13.2,9.86,102.42,102.42,0,0,0,68.42,14.8c1.54-.23,3.08-.45,4.62-.73l4.59-.95c1.52-.37,3-.77,4.55-1.17s2.88-.87,4.33-1.32l2.15-.68c.71-.24,1.42-.51,2.13-.77,1.41-.53,2.83-1,4.24-1.6,2.78-1.19,5.59-2.35,8.3-3.74s5.4-2.83,8.07-4.32,5.22-3.19,7.71-5a116.58,116.58,0,0,0,14.24-11.61A122.72,122.72,0,0,0,823,343.87a128.26,128.26,0,0,0,7.7-16.37A121.7,121.7,0,0,0,838.42,293a123.36,123.36,0,0,0,.07-17.19,120.68,120.68,0,0,0-2.25-16.56c-.29-1.34-.53-2.68-.87-4s-.68-2.62-1-3.92-.73-2.53-1.11-3.76-.77-2.44-1.15-3.65A146.45,146.45,0,0,0,805,195.67a141.49,141.49,0,0,0-16.07-16.25l-1.95-1.69-2-1.58c-1.3-1-2.55-2.05-3.8-3l-3.7-2.67-1.77-1.26-1.76-1.16c-2.31-1.51-4.45-2.91-6.51-4.07s-3.88-2.29-5.62-3.16-3.23-1.7-4.56-2.36l-3.41-1.58L751,155.61l-3.41-1.4c-2.22-1-5.57-2.16-9.91-3.65-2.19-.65-4.62-1.43-7.31-2.15s-5.62-1.49-8.83-2.06a139.85,139.85,0,0,0-21.88-2.75A146.08,146.08,0,0,0,673,144.69c-2.37.37-4.79.7-7.22,1.15s-4.89,1-7.36,1.55-5,1.25-7.45,2l-7.34,2.3a181.73,181.73,0,0,0-29.75,13.24,178,178,0,0,0-73.37,77.9,179,179,0,0,0-17.7,71.52,176.36,176.36,0,0,0,2.34,35.32l.34,2.12.42,2.1c.29,1.4.58,2.79.86,4.17.53,2.79,1.31,5.48,2,8.17.36,1.33.67,2.7,1.07,4l1.2,3.82c.4,1.26.79,2.52,1.19,3.77s.77,2.5,1.24,3.71l2.69,7.24.66,1.77.75,1.74c.49,1.16,1,2.3,1.47,3.44,1.88,4.6,4.08,8.9,6.15,13.11l.78,1.57.84,1.52,1.66,3c1.12,2,2.15,4,3.31,5.82s2.29,3.7,3.41,5.49c.56.9,1.12,1.78,1.66,2.66l1.75,2.53a212.61,212.61,0,0,0,34.49,39.49c2.44,2.1,4.62,4.12,6.76,5.83l6,4.72c.9.74,1.81,1.39,2.68,2l2.51,1.81,4.46,3.18,6.19,4c1,.64,2,1.31,3.06,1.91l3.09,1.75c2.06,1.14,4.07,2.31,6.11,3.36l6.11,3c1,.48,2,1,3,1.43l3,1.28,6,2.46,6,2.1c2,.67,3.91,1.38,5.89,1.9a161,161,0,0,0,45.18,6.77,157.16,157.16,0,0,0,42.14-5.56A171.9,171.9,0,0,0,791.68,495.91Z" style="fill:#231f20"/></svg>